<mxfile host="app.diagrams.net" agent="Mozilla/5.0 (Windows NT 10.0; Win64; x64) AppleWebKit/537.36 (KHTML, like Gecko) Chrome/128.0.0.0 Safari/537.36 OPR/114.0.0.0" version="25.0.3">
  <diagram name="Page-1" id="igfpjx6QD9kQ4aq35Z2C">
    <mxGraphModel dx="1171" dy="712" grid="1" gridSize="10" guides="1" tooltips="1" connect="1" arrows="1" fold="1" page="1" pageScale="1" pageWidth="850" pageHeight="1100" math="0" shadow="0">
      <root>
        <mxCell id="0" />
        <mxCell id="1" parent="0" />
        <mxCell id="fHAlcju9ksSdynR4Cy6y-1" value="Login Manager" style="shape=folder;fontStyle=1;spacingTop=10;tabWidth=40;tabHeight=14;tabPosition=left;html=1;whiteSpace=wrap;" vertex="1" parent="1">
          <mxGeometry x="490" y="430" width="70" height="50" as="geometry" />
        </mxCell>
        <mxCell id="fHAlcju9ksSdynR4Cy6y-2" value="Query Manager" style="shape=folder;fontStyle=1;spacingTop=10;tabWidth=40;tabHeight=14;tabPosition=left;html=1;whiteSpace=wrap;" vertex="1" parent="1">
          <mxGeometry x="390" y="525" width="70" height="50" as="geometry" />
        </mxCell>
        <mxCell id="fHAlcju9ksSdynR4Cy6y-3" value="Questionnaire Manager" style="shape=folder;fontStyle=1;spacingTop=10;tabWidth=40;tabHeight=14;tabPosition=left;html=1;whiteSpace=wrap;" vertex="1" parent="1">
          <mxGeometry x="383" y="260" width="85" height="50" as="geometry" />
        </mxCell>
        <mxCell id="fHAlcju9ksSdynR4Cy6y-4" value="Profile Manager" style="shape=folder;fontStyle=1;spacingTop=10;tabWidth=40;tabHeight=14;tabPosition=left;html=1;whiteSpace=wrap;" vertex="1" parent="1">
          <mxGeometry x="290" y="430" width="70" height="50" as="geometry" />
        </mxCell>
        <mxCell id="fHAlcju9ksSdynR4Cy6y-5" value="Notification Manager" style="shape=folder;fontStyle=1;spacingTop=10;tabWidth=40;tabHeight=14;tabPosition=left;html=1;whiteSpace=wrap;" vertex="1" parent="1">
          <mxGeometry x="390" y="430" width="70" height="50" as="geometry" />
        </mxCell>
        <mxCell id="fHAlcju9ksSdynR4Cy6y-6" style="edgeStyle=orthogonalEdgeStyle;rounded=0;orthogonalLoop=1;jettySize=auto;html=1;entryX=0.5;entryY=1;entryDx=0;entryDy=0;entryPerimeter=0;endArrow=none;endFill=0;" edge="1" parent="1" source="fHAlcju9ksSdynR4Cy6y-2" target="fHAlcju9ksSdynR4Cy6y-4">
          <mxGeometry relative="1" as="geometry">
            <Array as="points">
              <mxPoint x="425" y="510" />
              <mxPoint x="325" y="510" />
            </Array>
          </mxGeometry>
        </mxCell>
        <mxCell id="fHAlcju9ksSdynR4Cy6y-7" style="edgeStyle=orthogonalEdgeStyle;rounded=0;orthogonalLoop=1;jettySize=auto;html=1;entryX=0.5;entryY=1;entryDx=0;entryDy=0;entryPerimeter=0;endArrow=none;endFill=0;" edge="1" parent="1" source="fHAlcju9ksSdynR4Cy6y-2" target="fHAlcju9ksSdynR4Cy6y-5">
          <mxGeometry relative="1" as="geometry" />
        </mxCell>
        <mxCell id="fHAlcju9ksSdynR4Cy6y-8" style="edgeStyle=orthogonalEdgeStyle;rounded=0;orthogonalLoop=1;jettySize=auto;html=1;entryX=0.5;entryY=1;entryDx=0;entryDy=0;entryPerimeter=0;endArrow=none;endFill=0;" edge="1" parent="1" source="fHAlcju9ksSdynR4Cy6y-2" target="fHAlcju9ksSdynR4Cy6y-1">
          <mxGeometry relative="1" as="geometry">
            <Array as="points">
              <mxPoint x="425" y="510" />
              <mxPoint x="525" y="510" />
            </Array>
          </mxGeometry>
        </mxCell>
        <mxCell id="fHAlcju9ksSdynR4Cy6y-9" style="edgeStyle=orthogonalEdgeStyle;rounded=0;orthogonalLoop=1;jettySize=auto;html=1;entryX=0.5;entryY=1;entryDx=0;entryDy=0;entryPerimeter=0;endArrow=none;endFill=0;" edge="1" parent="1" source="fHAlcju9ksSdynR4Cy6y-5" target="fHAlcju9ksSdynR4Cy6y-3">
          <mxGeometry relative="1" as="geometry" />
        </mxCell>
        <mxCell id="fHAlcju9ksSdynR4Cy6y-10" value="Internship Manager" style="shape=folder;fontStyle=1;spacingTop=10;tabWidth=40;tabHeight=14;tabPosition=left;html=1;whiteSpace=wrap;" vertex="1" parent="1">
          <mxGeometry x="383" y="170" width="85" height="50" as="geometry" />
        </mxCell>
        <mxCell id="fHAlcju9ksSdynR4Cy6y-11" style="edgeStyle=orthogonalEdgeStyle;rounded=0;orthogonalLoop=1;jettySize=auto;html=1;entryX=0.5;entryY=1;entryDx=0;entryDy=0;entryPerimeter=0;endArrow=none;endFill=0;" edge="1" parent="1" source="fHAlcju9ksSdynR4Cy6y-3" target="fHAlcju9ksSdynR4Cy6y-10">
          <mxGeometry relative="1" as="geometry" />
        </mxCell>
        <mxCell id="fHAlcju9ksSdynR4Cy6y-12" value="Driver" style="shape=folder;fontStyle=1;spacingTop=10;tabWidth=40;tabHeight=14;tabPosition=left;html=1;whiteSpace=wrap;" vertex="1" parent="1">
          <mxGeometry x="383" y="80" width="85" height="50" as="geometry" />
        </mxCell>
        <mxCell id="fHAlcju9ksSdynR4Cy6y-13" style="edgeStyle=orthogonalEdgeStyle;rounded=0;orthogonalLoop=1;jettySize=auto;html=1;entryX=0.5;entryY=1;entryDx=0;entryDy=0;entryPerimeter=0;endArrow=none;endFill=0;" edge="1" parent="1" source="fHAlcju9ksSdynR4Cy6y-10" target="fHAlcju9ksSdynR4Cy6y-12">
          <mxGeometry relative="1" as="geometry" />
        </mxCell>
      </root>
    </mxGraphModel>
  </diagram>
</mxfile>
